<svg xmlns="http://www.w3.org/2000/svg" xmlns:xlink="http://www.w3.org/1999/xlink" width="189pt" height="152pt" viewBox="0.00 0.00 189.29 152.00">
<g id="graph0" class="graph" transform="scale(1 1) rotate(0) translate(4 148)">
<title>G</title>
<polygon fill="white" stroke="none" points="-4,4 -4,-148 185.29,-148 185.29,4 -4,4"/>
<!-- {} -->
<g id="node1" class="node">
<title>{}</title>
<ellipse fill="none" stroke="black" cx="27" cy="-72" rx="27" ry="18"/>
<text text-anchor="middle" x="27" y="-68.3" font-family="Times,serif" font-size="14.00">{}</text>
</g>
<!-- {2, 2} -->
<g id="node2" class="node">
<title>{2, 2}</title>
<ellipse fill="none" stroke="black" cx="148.15" cy="-126" rx="33.29" ry="18"/>
<text text-anchor="middle" x="148.15" y="-122.3" font-family="Times,serif" font-size="14.00">{2, 2}</text>
</g>
<!-- {}&#45;&gt;{2, 2} -->
<g id="edge1" class="edge">
<title>{}-&gt;{2, 2}</title>
<path fill="none" stroke="black" d="M49.85,-81.9C67.17,-89.75 91.7,-100.87 111.79,-109.98"/>
<polygon fill="black" stroke="black" points="110.2,-113.1 120.76,-114.04 113.09,-106.72 110.2,-113.1"/>
<text text-anchor="middle" x="84.5" y="-105.8" font-family="Times,serif" font-size="14.00">0.81</text>
</g>
<!-- {2, 4} -->
<g id="node3" class="node">
<title>{2, 4}</title>
<ellipse fill="none" stroke="black" cx="148.15" cy="-72" rx="33.29" ry="18"/>
<text text-anchor="middle" x="148.15" y="-68.3" font-family="Times,serif" font-size="14.00">{2, 4}</text>
</g>
<!-- {}&#45;&gt;{2, 4} -->
<g id="edge2" class="edge">
<title>{}-&gt;{2, 4}</title>
<path fill="none" stroke="black" d="M54.44,-72C68.68,-72 86.61,-72 102.9,-72"/>
<polygon fill="black" stroke="black" points="102.88,-75.5 112.88,-72 102.88,-68.5 102.88,-75.5"/>
<text text-anchor="middle" x="84.5" y="-75.8" font-family="Times,serif" font-size="14.00">0.18</text>
</g>
<!-- {4, 4} -->
<g id="node4" class="node">
<title>{4, 4}</title>
<ellipse fill="none" stroke="black" cx="148.15" cy="-18" rx="33.29" ry="18"/>
<text text-anchor="middle" x="148.15" y="-14.3" font-family="Times,serif" font-size="14.00">{4, 4}</text>
</g>
<!-- {}&#45;&gt;{4, 4} -->
<g id="edge3" class="edge">
<title>{}-&gt;{4, 4}</title>
<path fill="none" stroke="black" d="M49.85,-62.1C67.17,-54.25 91.7,-43.13 111.79,-34.02"/>
<polygon fill="black" stroke="black" points="113.09,-37.28 120.76,-29.96 110.2,-30.9 113.09,-37.28"/>
<text text-anchor="middle" x="84.5" y="-54.8" font-family="Times,serif" font-size="14.00">0.01</text>
</g>
</g>
</svg>