<svg xmlns="http://www.w3.org/2000/svg" xmlns:xlink="http://www.w3.org/1999/xlink" width="195pt" height="98pt" viewBox="0.00 0.00 194.59 98.00">
<g id="graph0" class="graph" transform="scale(1 1) rotate(0) translate(4 94)">
<title>G</title>
<polygon fill="white" stroke="none" points="-4,4 -4,-94 190.59,-94 190.59,4 -4,4"/>
<!-- {2, 2} -->
<g id="node1" class="node">
<title>{2, 2}</title>
<ellipse fill="none" stroke="black" cx="33.15" cy="-45" rx="33.29" ry="18"/>
<text text-anchor="middle" x="33.15" y="-41.3" font-family="Times,serif" font-size="14.00">{2, 2}</text>
</g>
<!-- {2, 4} -->
<g id="node2" class="node">
<title>{2, 4}</title>
<ellipse fill="none" stroke="black" cx="153.44" cy="-72" rx="33.29" ry="18"/>
<text text-anchor="middle" x="153.44" y="-68.3" font-family="Times,serif" font-size="14.00">{2, 4}</text>
</g>
<!-- {2, 2}&#45;&gt;{2, 4} -->
<g id="edge1" class="edge">
<title>{2, 2}-&gt;{2, 4}</title>
<path fill="none" stroke="black" d="M64.3,-51.88C78.63,-55.15 95.96,-59.11 111.45,-62.64"/>
<polygon fill="black" stroke="black" points="110.34,-65.98 120.86,-64.79 111.89,-59.16 110.34,-65.98"/>
<text text-anchor="middle" x="93.29" y="-63.8" font-family="Times,serif" font-size="14.00">0.9</text>
</g>
<!-- {4, 4} -->
<g id="node3" class="node">
<title>{4, 4}</title>
<ellipse fill="none" stroke="black" cx="153.44" cy="-18" rx="33.29" ry="18"/>
<text text-anchor="middle" x="153.44" y="-14.3" font-family="Times,serif" font-size="14.00">{4, 4}</text>
</g>
<!-- {2, 2}&#45;&gt;{4, 4} -->
<g id="edge2" class="edge">
<title>{2, 2}-&gt;{4, 4}</title>
<path fill="none" stroke="black" d="M64.3,-38.12C78.63,-34.85 95.96,-30.89 111.45,-27.36"/>
<polygon fill="black" stroke="black" points="111.89,-30.84 120.86,-25.21 110.34,-24.02 111.89,-30.84"/>
<text text-anchor="middle" x="93.29" y="-36.8" font-family="Times,serif" font-size="14.00">0.1</text>
</g>
</g>
</svg>